<?xml version="1.0" encoding="UTF-8"?>
<svg id="Camada_2" data-name="Camada 2" xmlns="http://www.w3.org/2000/svg" xmlns:xlink="http://www.w3.org/1999/xlink" viewBox="70 190 330 150">
  <defs>
    <style>
      .cls-1 {
        fill: none;
      }

      .cls-1, .cls-2, .cls-3 {
        stroke-width: 0px;
      }

      .cls-4 {
        clip-path: url(#clippath-1);
      }

      .cls-2 {
        fill: #c505f2;
      }

      .cls-3 {
        fill: #fff;
      }

      .cls-5 {
        clip-path: url(#clippath);
      }
    </style>
    <clipPath id="clippath">
      <rect class="cls-1" x="80.3" y="200.5" width="313.9" height="87.9"/>
    </clipPath>
    <clipPath id="clippath-1">
      <rect class="cls-1" x="80.3" y="200.5" width="313.9" height="87.9"/>
    </clipPath>
  </defs>
  <g id="Camada_1-2" data-name="Camada 1">
    <g id="Camada_4" data-name="Camada 4">
      <rect class="cls-1" width="500" height="500"/>
      <g>
        <rect class="cls-3" x="261.5" y="200.5" width="20" height="86.2"/>
        <polygon class="cls-3" points="319.1 264.9 319.1 287.2 261.6 254.8 261.6 232.5 319.1 264.9"/>
        <polygon class="cls-2" points="261.5 254.1 261.5 277.2 319.4 244.9 319.4 221.8 261.5 254.1"/>
        <polygon class="cls-3" points="159.8 219.1 149.4 255.8 139.1 219.4 139.2 219.1 139 219.1 120.1 219.1 119.9 219.1 120 219.4 109.7 255.8 99.3 219.1 80.3 219.1 89 250.2 89.1 249.9 99.4 286.7 101.2 286.7 101.3 286.7 119 286.7 119.1 286.7 120 286.7 129.6 252.8 139.1 286.7 140.9 286.7 141 286.7 158.7 286.7 158.8 286.7 159.7 286.7 178.9 219.1 159.8 219.1"/>
        <g>
          <g class="cls-5">
            <path class="cls-3" d="m202.6,265.6c3.3,3.5,7.4,5.2,12.5,5.2s9.2-1.7,12.5-5.3,5.1-7.8,5.1-12.7-1.7-9.2-5.1-12.6c-3.3-3.5-7.4-5.2-12.5-5.2s-9.2,1.7-12.5,5.2c-3.2,3.5-4.8,7.7-4.8,12.6s1.6,9.2,4.8,12.8m30.1-46.5h18.3v67.6h-18.3v-6.9c-5.8,5.8-12.7,8.7-20.9,8.7-9.7,0-17.7-3.5-24-10.3-6.3-6.9-9.4-15.5-9.4-25.7s3.2-18.6,9.5-25.2c6.3-6.7,14.4-10,23.9-10,8.2,0,15.1,3,20.9,8.9v-7.1Z"/>
          </g>
          <g class="cls-4">
            <path class="cls-3" d="m343.6,245.7h31.9c-1.9-7.8-7.6-12.6-15.6-12.6-7.9-.1-14.2,4.6-16.3,12.6m50,13.8h-49.9c2.4,8.5,8.5,12.7,18.4,12.7,7.7,0,14.7-2.2,21.2-6.6l7.7,13.2c-8.3,6.3-18.2,9.4-29.7,9.4s-21.2-3.5-27.6-10.3c-6.3-6.8-9.5-15.2-9.5-25.2s3.3-18.7,9.9-25.4c6.6-6.8,15.2-10.2,25.9-10.2,10,0,18.2,3.1,24.6,9.2,6.4,6.1,9.7,14.4,9.7,24.9-.1,2.5-.4,5.2-.7,8.3"/>
          </g>
        </g>
      </g>
      <g>
        <path class="cls-2" d="m166.6,300h5l-12.2,32.2h-5l12.2-32.2Z"/>
        <path class="cls-2" d="m178.7,300h5l-12.2,32.2h-5l12.2-32.2Z"/>
        <path class="cls-3" d="m210.9,310.8c1.6,1.2,2.6,3.4,2.9,6.4h-3.7c-.2-1.4-.7-2.6-1.5-3.5s-2.1-1.4-3.9-1.4c-2.4,0-4.2,1.2-5.2,3.6-.7,1.5-1,3.4-1,5.7s.5,4.2,1.4,5.8c1,1.6,2.5,2.3,4.5,2.3,1.6,0,2.8-.5,3.8-1.5.9-1,1.6-2.3,1.9-4h3.7c-.4,3-1.5,5.2-3.2,6.6-1.7,1.4-3.9,2.1-6.5,2.1-3,0-5.3-1.1-7.1-3.3s-2.7-4.9-2.7-8.1c0-4,1-7.1,2.9-9.3s4.4-3.3,7.4-3.3c2.6,0,4.7.6,6.3,1.9Z"/>
        <path class="cls-3" d="m234.2,311.8c2,2,3,4.8,3,8.6s-.9,6.7-2.7,9.1-4.6,3.6-8.3,3.6c-3.1,0-5.6-1.1-7.5-3.2-1.8-2.1-2.8-5-2.8-8.5,0-3.8,1-6.9,2.9-9.1,1.9-2.3,4.5-3.4,7.8-3.4,3.1,0,5.6,1,7.6,2.9Zm-2.3,15.1c.9-1.9,1.4-4.1,1.4-6.4,0-2.1-.3-3.8-1-5.2-1.1-2.1-2.9-3.1-5.6-3.1-2.3,0-4,.9-5.1,2.7s-1.6,3.9-1.6,6.5c0,2.4.5,4.4,1.6,6.1s2.7,2.4,5.1,2.4c2.5-.1,4.2-1,5.2-3Z"/>
        <path class="cls-3" d="m241.8,309.5h3.8v3.2c.9-1.1,1.7-1.9,2.5-2.4,1.3-.9,2.7-1.3,4.3-1.3,1.8,0,3.3.4,4.4,1.3.6.5,1.2,1.3,1.7,2.3.8-1.2,1.8-2.1,3-2.7,1.1-.6,2.4-.9,3.9-.9,3.1,0,5.1,1.1,6.2,3.3.6,1.2.9,2.8.9,4.8v15.1h-4v-15.8c0-1.5-.4-2.6-1.1-3.1-.8-.6-1.7-.8-2.8-.8-1.5,0-2.8.5-3.9,1.5s-1.6,2.7-1.6,5v13.2h-3.9v-14.8c0-1.5-.2-2.7-.6-3.4-.6-1.1-1.7-1.6-3.2-1.6-1.4,0-2.8.6-3.9,1.7-1.2,1.1-1.8,3.1-1.8,6.1v12.1h-3.9v-22.8Z"/>
        <path class="cls-3" d="m278,309.5h3.8v3.2c.9-1.1,1.7-1.9,2.5-2.4,1.3-.9,2.7-1.3,4.3-1.3,1.8,0,3.3.4,4.4,1.3.6.5,1.2,1.3,1.7,2.3.8-1.2,1.8-2.1,3-2.7,1.1-.6,2.4-.9,3.9-.9,3.1,0,5.1,1.1,6.2,3.3.6,1.2.9,2.8.9,4.8v15.1h-4v-15.8c0-1.5-.4-2.6-1.1-3.1-.8-.6-1.7-.8-2.8-.8-1.5,0-2.8.5-3.9,1.5s-1.6,2.7-1.6,5v13.2h-3.9v-14.8c0-1.5-.2-2.7-.6-3.4-.6-1.1-1.7-1.6-3.2-1.6-1.4,0-2.8.6-3.9,1.7-1.2,1.1-1.8,3.1-1.8,6.1v12.1h-3.8v-22.8h-.1Z"/>
        <path class="cls-3" d="m328.4,310.2c1.5.8,2.7,1.7,3.5,2.9.8,1.1,1.3,2.5,1.5,4,.2,1,.3,2.7.3,5h-16.7c.1,2.3.6,4.2,1.6,5.6,1,1.4,2.6,2.1,4.7,2.1s3.6-.7,4.8-2c.7-.8,1.2-1.6,1.4-2.7h3.8c-.1.8-.4,1.8-1,2.8s-1.2,1.9-1.9,2.5c-1.2,1.1-2.6,1.9-4.3,2.3-.9.2-2,.3-3.1.3-2.8,0-5.2-1-7.2-3.1s-3-4.9-3-8.7,1-6.6,3-8.9c2-2.3,4.6-3.4,7.8-3.4,1.7.1,3.3.5,4.8,1.3Zm1.4,8.9c-.2-1.7-.5-3-1.1-4-1-1.8-2.8-2.8-5.2-2.8-1.8,0-3.2.6-4.4,1.9-1.2,1.3-1.8,2.9-1.9,4.8h12.6v.1Z"/>
        <path class="cls-3" d="m338.5,309.5h3.6v3.9c.3-.8,1-1.7,2.2-2.8s2.5-1.6,4-1.6h.4c.2,0,.5,0,.9.1v4c-.2,0-.4-.1-.6-.1h-.6c-1.9,0-3.4.6-4.4,1.9-1,1.2-1.5,2.7-1.5,4.3v13.1h-3.8v-22.8h-.2Z"/>
        <path class="cls-3" d="m367.9,310.8c1.6,1.2,2.6,3.4,2.9,6.4h-3.7c-.2-1.4-.7-2.6-1.5-3.5s-2.1-1.4-3.9-1.4c-2.4,0-4.2,1.2-5.2,3.6-.7,1.5-1,3.4-1,5.7s.5,4.2,1.4,5.8c1,1.6,2.5,2.3,4.5,2.3,1.6,0,2.8-.5,3.8-1.5.9-1,1.6-2.3,1.9-4h3.7c-.4,3-1.5,5.2-3.2,6.6-1.7,1.4-3.9,2.1-6.5,2.1-3,0-5.3-1.1-7.1-3.3s-2.7-4.9-2.7-8.1c0-4,1-7.1,2.9-9.3s4.4-3.3,7.4-3.3c2.6,0,4.7.6,6.3,1.9Z"/>
        <path class="cls-3" d="m388.8,310.2c1.5.8,2.7,1.7,3.5,2.9.8,1.1,1.3,2.5,1.5,4,.2,1,.3,2.7.3,5h-16.7c.1,2.3.6,4.2,1.6,5.6,1,1.4,2.6,2.1,4.7,2.1s3.6-.7,4.8-2c.7-.8,1.2-1.6,1.4-2.7h3.8c-.1.8-.4,1.8-1,2.8s-1.2,1.9-1.9,2.5c-1.2,1.1-2.6,1.9-4.3,2.3-.9.2-2,.3-3.1.3-2.8,0-5.2-1-7.2-3.1s-3-4.9-3-8.7,1-6.6,3-8.9c2-2.3,4.6-3.4,7.8-3.4,1.7.1,3.3.5,4.8,1.3Zm1.4,8.9c-.2-1.7-.5-3-1.1-4-1-1.8-2.8-2.8-5.2-2.8-1.8,0-3.2.6-4.4,1.9-1.2,1.3-1.8,2.9-1.9,4.8h12.6v.1Z"/>
      </g>
    </g>
  </g>
</svg>